<svg width="344" height="350" viewBox="0 0 344 350" fill="none" xmlns="http://www.w3.org/2000/svg">
<g clip-path="url(#clip0_12459_381)">
<path d="M209.095 187.78C209.224 196.668 202.259 203.753 192.457 203.753C158.535 203.881 124.613 203.882 90.691 203.882L94.5604 197.956C92.7547 194.349 91.2069 190.743 90.0461 187.007L75.9872 183.915C73.4075 183.4 71.6018 181.082 71.6018 178.505V147.461C71.6018 144.885 73.4075 142.695 75.9872 142.051L90.0461 138.96C91.3359 135.224 92.7547 131.617 94.5604 128.01L86.6926 115.902C85.2738 113.712 85.6607 110.878 87.4664 109.075L109.393 87.1765C111.199 85.2443 114.165 84.9867 116.229 86.4036L128.353 94.2612C131.965 92.4578 135.576 90.9121 139.317 89.7528L142.412 75.5833C142.928 73.1358 145.121 71.4612 147.829 71.4612H178.785C181.364 71.4612 183.686 73.1358 184.202 75.7121L187.298 89.8816C191.038 91.0409 194.778 92.5867 198.261 94.39L210.385 86.5324C212.578 85.1155 215.415 85.5019 217.221 87.3053L239.148 109.204C239.664 109.719 240.18 110.621 240.438 111.393C229.474 109.848 218.511 108.431 207.548 107.529C184.976 105.597 162.275 104.18 139.704 104.824C122.291 105.468 109.264 122.729 110.296 139.732C111.199 153 119.454 164.336 131.062 169.359C135.06 171.163 139.446 172.065 144.089 172.193C160.212 172.451 176.205 172.193 192.328 172.322C193.231 172.322 194.005 172.451 194.778 172.451C203.291 173.353 208.966 179.407 209.095 187.78Z" fill="#00AEEF"/>
<path d="M255 147.625V178.688C255 181.266 253.194 183.458 250.742 184.102L236.552 187.195C235.262 190.933 233.843 194.542 232.037 198.151L239.777 210.268C241.196 212.459 240.809 215.294 239.003 217.099L217.073 239.011C215.267 240.815 212.428 241.073 210.235 239.784L198.109 231.922C194.626 233.726 190.885 235.273 187.144 236.433L184.048 250.483C183.532 253.06 181.339 254.865 178.63 254.865H147.669C145.089 254.865 142.896 253.06 142.251 250.483L139.154 236.433C135.413 235.144 131.801 233.726 128.189 231.922L116.063 239.784C113.999 241.202 111.032 240.815 109.226 239.011L87.2951 217.099C86.5211 216.326 86.0051 215.294 85.7471 214.263C121.223 219.419 156.699 222.384 192.433 222.513C212.299 222.513 227.393 207.174 227.393 188.098C227.264 170.31 213.073 155.745 194.755 154.327C193.852 154.199 192.82 154.199 191.788 154.199C176.436 154.07 161.085 154.199 145.734 154.199C140.574 154.07 136.316 152.523 133.349 149.687C130.511 146.852 128.705 142.856 128.705 138.345C128.834 129.064 135.413 122.748 145.476 122.748C175.533 122.619 205.591 122.619 235.649 122.619L231.908 128.42C233.585 132.029 235.133 135.638 236.423 139.376L250.613 142.469C253.065 142.856 255 145.047 255 147.625Z" fill="#323232"/>
<path fill-rule="evenodd" clip-rule="evenodd" d="M251.062 295.867C188.514 337.227 103.469 330.365 48.3851 275.281C-14.5369 212.359 -14.5369 110.343 48.3851 47.4205C111.307 -15.5015 213.324 -15.5015 276.246 47.4205C333.898 105.073 338.727 195.546 290.731 258.696L335.013 302.977C345.622 313.587 345.622 330.788 335.013 341.398C324.403 352.007 307.202 352.007 296.592 341.398L251.062 295.867ZM245.273 244.309C199.457 290.125 125.174 290.125 79.3573 244.309C33.541 198.492 33.541 124.209 79.3573 78.3931C125.174 32.5769 199.457 32.5769 245.273 78.3932C291.089 124.209 291.089 198.492 245.273 244.309Z" fill="#00AEEF"/>
</g>
<defs>
<clipPath id="clip0_12459_381">
<rect width="342.779" height="349.5" fill="white" transform="translate(0.5)"/>
</clipPath>
</defs>
</svg>
